<?xml version="1.0" encoding="UTF-8"?>
<svg id="_レイヤー_1" data-name="レイヤー 1" xmlns="http://www.w3.org/2000/svg" viewBox="0 0 1500 1500">
  <defs>
    <style>
      .cls-1 {
        font-family: HiraKakuStd-W8-83pv-RKSJ-H, 'Hiragino Kaku Gothic Std';
        font-size: 277.71px;
      }

      .cls-1, .cls-2 {
        fill: #00aa8a;
      }

      .cls-3 {
        fill: #fff;
      }
    </style>
  </defs>
  <path class="cls-2" d="M750,336.64c164.7,0,298.69,154.2,298.69,343.74s-133.99,343.74-298.69,343.74-298.69-154.2-298.69-343.74,133.99-343.74,298.69-343.74M750,271.64c-200.86,0-363.69,183-363.69,408.74s162.83,408.74,363.69,408.74,363.69-183,363.69-408.74-162.83-408.74-363.69-408.74h0Z"/>
  <g>
    <path class="cls-3" d="M750,400.21c-83.46,0-161.34-19.43-219.29-54.71-51.75-31.5-80.25-71.28-80.25-111.99s28.5-80.49,80.25-111.99c57.95-35.28,135.83-54.71,219.29-54.71s161.34,19.43,219.29,54.71c51.75,31.5,80.25,71.28,80.25,111.99s-28.5,80.49-80.25,111.99c-57.95,35.28-135.83,54.71-219.29,54.71Z"/>
    <path class="cls-2" d="M750,106.8c39.11,0,76.87,4.61,112.22,13.72,32.34,8.33,62.17,20.48,86.28,35.16,21.29,12.96,38.12,27.84,48.67,43.02,8.33,11.99,12.38,23.38,12.38,34.81s-4.05,22.82-12.38,34.81c-10.55,15.18-27.38,30.05-48.67,43.02-24.11,14.67-53.94,26.83-86.28,35.16-35.35,9.1-73.1,13.72-112.22,13.72s-76.87-4.61-112.22-13.72c-32.34-8.33-62.17-20.48-86.28-35.16-21.29-12.96-38.12-27.84-48.67-43.02-8.33-11.99-12.38-23.38-12.38-34.81s4.05-22.82,12.38-34.81c10.55-15.18,27.38-30.05,48.67-43.02,24.11-14.67,53.94-26.83,86.28-35.16,35.35-9.1,73.1-13.72,112.22-13.72M750,26.8c-187.52,0-339.54,92.54-339.54,206.7s152.02,206.7,339.54,206.7,339.54-92.54,339.54-206.7S937.52,26.8,750,26.8h0Z"/>
  </g>
  <g>
    <path class="cls-2" d="M750,1154.27c-175.08,0-341.65-12.87-469.04-36.25-60.74-11.15-109.52-24.06-144.98-38.39-35.92-14.51-46.21-25.91-48.75-29.55,2.54-3.64,12.84-15.03,48.75-29.55,35.46-14.33,84.23-27.25,144.98-38.39,127.38-23.38,293.96-36.25,469.04-36.25s341.65,12.87,469.04,36.25c60.74,11.15,109.52,24.06,144.98,38.39,35.92,14.51,46.21,25.91,48.75,29.55-2.54,3.64-12.84,15.03-48.75,29.55-35.46,14.33-84.23,27.25-144.98,38.39-127.38,23.38-293.96,36.25-469.04,36.25Z"/>
    <path class="cls-2" d="M750,978.4c160.33,0,315.65,11.08,437.33,31.21,84.35,13.95,134.25,28.96,163.05,40.47-28.8,11.52-78.7,26.52-163.05,40.47-121.69,20.13-277,31.21-437.33,31.21s-315.65-11.08-437.33-31.21c-84.35-13.95-134.25-28.96-163.05-40.47,28.81-11.52,78.7-26.52,163.05-40.47,121.68-20.13,277-31.21,437.33-31.21M750,913.4c-384.3,0-695.85,61.2-695.85,136.69s311.54,136.69,695.85,136.69,695.85-61.2,695.85-136.69-311.54-136.69-695.85-136.69h0Z"/>
  </g>
  <g>
    <g>
      <path class="cls-3" d="M374.69,865.14c-45.39,0-89.32-5.97-130.59-17.75-39.25-11.2-74.31-27.11-104.21-47.28-57.32-38.67-88.89-88.51-88.89-140.33s31.57-101.66,88.89-140.33c29.9-20.17,64.96-36.08,104.21-47.28,41.27-11.78,85.21-17.75,130.59-17.75s89.32,5.97,130.59,17.75c39.25,11.2,74.31,27.1,104.21,47.28,57.32,38.67,88.89,88.51,88.89,140.33s-31.57,101.66-88.89,140.33c-29.9,20.17-64.96,36.08-104.21,47.28-41.27,11.78-85.21,17.75-130.59,17.75Z"/>
      <path class="cls-2" d="M374.69,494.43c41.67,0,81.92,5.45,119.62,16.21,35.19,10.04,66.42,24.16,92.82,41.97,23.74,16.02,42.73,34.75,54.9,54.17,10.86,17.32,16.36,35.15,16.36,53.01s-5.5,35.69-16.36,53.01c-12.17,19.42-31.16,38.15-54.9,54.17-26.4,17.81-57.63,31.93-92.82,41.97-37.7,10.76-77.94,16.21-119.62,16.21s-81.92-5.45-119.62-16.21c-35.19-10.04-66.42-24.16-92.82-41.97-23.74-16.02-42.73-34.75-54.9-54.17-10.86-17.32-16.36-35.15-16.36-53.01s5.5-35.69,16.36-53.01c12.17-19.42,31.16-38.15,54.9-54.17,26.4-17.81,57.63-31.93,92.82-41.97,37.7-10.76,77.94-16.21,119.62-16.21M374.69,414.43c-200.86,0-363.69,109.85-363.69,245.36s162.83,245.36,363.69,245.36,363.69-109.85,363.69-245.36-162.83-245.36-363.69-245.36h0Z"/>
    </g>
    <g>
      <path class="cls-3" d="M1125.31,865.14c-45.39,0-89.32-5.97-130.59-17.75-39.25-11.2-74.31-27.11-104.21-47.28-57.32-38.67-88.89-88.51-88.89-140.33s31.57-101.66,88.89-140.33c29.9-20.17,64.96-36.08,104.21-47.28,41.27-11.78,85.21-17.75,130.59-17.75s89.32,5.97,130.59,17.75c39.25,11.2,74.31,27.1,104.21,47.28,57.32,38.67,88.89,88.51,88.89,140.33s-31.57,101.66-88.89,140.33c-29.9,20.17-64.96,36.08-104.21,47.28-41.27,11.78-85.21,17.75-130.59,17.75Z"/>
      <path class="cls-2" d="M1125.31,494.43c41.67,0,81.92,5.45,119.62,16.21,35.19,10.04,66.42,24.16,92.81,41.97,23.74,16.02,42.73,34.75,54.9,54.17,10.86,17.32,16.36,35.15,16.36,53.01s-5.5,35.69-16.36,53.01c-12.17,19.42-31.16,38.15-54.9,54.17-26.4,17.81-57.63,31.93-92.82,41.97-37.7,10.76-77.94,16.21-119.62,16.21s-81.92-5.45-119.62-16.21c-35.19-10.04-66.42-24.16-92.82-41.97-23.74-16.02-42.73-34.75-54.9-54.17-10.86-17.32-16.36-35.15-16.36-53.01s5.5-35.69,16.36-53.01c12.17-19.42,31.16-38.15,54.9-54.17,26.4-17.81,57.63-31.93,92.82-41.97,37.7-10.76,77.94-16.21,119.62-16.21M1125.31,414.43c-200.86,0-363.69,109.85-363.69,245.36s162.83,245.36,363.69,245.36,363.69-109.85,363.69-245.36-162.83-245.36-363.69-245.36h0Z"/>
    </g>
  </g>
  <text class="cls-1" transform="translate(21.72 1457.38)"><tspan x="0" y="0">COTOMY</tspan></text>
</svg>