<?xml version="1.0" encoding="UTF-8"?>
<svg id="_レイヤー_1" data-name="レイヤー 1" xmlns="http://www.w3.org/2000/svg" viewBox="0 0 1500 1500">
  <defs>
    <style>
      .cls-1 {
        font-family: HiraKakuStd-W8-83pv-RKSJ-H, 'Hiragino Kaku Gothic Std';
        font-size: 277.71px;
      }

      .cls-1, .cls-2 {
        fill: #00aa8a;
      }

      .cls-3 {
        fill: #fff;
      }
    </style>
  </defs>
  <path class="cls-2" d="M750,336.64c164.7,0,298.69,154.2,298.69,343.74s-133.99,343.74-298.69,343.74-298.69-154.2-298.69-343.74,133.99-343.74,298.69-343.74M750,271.64c-200.86,0-363.69,183-363.69,408.74s162.83,408.74,363.69,408.74,363.69-183,363.69-408.74-162.83-408.74-363.69-408.74h0Z"/>
  <g>
    <path class="cls-3" d="M750,402.8c-45.85,0-90.24-5.25-131.92-15.61-39.58-9.83-74.9-23.78-104.99-41.45-28.17-16.55-50.91-36.18-65.74-56.78-13.96-19.38-21.04-39.49-21.04-59.77s7.08-40.38,21.04-59.77c14.84-20.6,37.57-40.23,65.74-56.78,30.09-17.67,65.41-31.61,104.99-41.45,41.69-10.35,86.07-15.61,131.92-15.61s90.24,5.25,131.92,15.61c39.58,9.83,74.9,23.78,104.99,41.45,28.17,16.55,50.91,36.18,65.74,56.78,13.96,19.38,21.04,39.49,21.04,59.77s-7.08,40.38-21.04,59.77c-14.84,20.6-37.57,40.23-65.74,56.78-30.09,17.67-65.41,31.61-104.99,41.45-41.69,10.35-86.07,15.61-131.92,15.61Z"/>
    <path class="cls-2" d="M750,95.61c42.6,0,83.75,4.85,122.28,14.43,35.35,8.78,67.98,21.61,94.38,37.12,23.41,13.75,41.93,29.54,53.54,45.66,9.08,12.61,13.5,24.51,13.5,36.39s-4.42,23.78-13.5,36.39c-11.61,16.12-30.12,31.91-53.54,45.66-26.4,15.5-59.03,28.34-94.38,37.12-38.53,9.57-79.68,14.43-122.28,14.43s-83.75-4.85-122.28-14.43c-35.35-8.78-67.98-21.61-94.38-37.12-23.41-13.75-41.93-29.54-53.54-45.66-9.08-12.61-13.5-24.51-13.5-36.39s4.42-23.78,13.5-36.39c11.61-16.12,30.12-31.91,53.54-45.66,26.4-15.5,59.03-28.34,94.38-37.12,38.53-9.57,79.68-14.43,122.28-14.43M750,15.61c-200.86,0-363.69,95.63-363.69,213.6s162.83,213.6,363.69,213.6,363.69-95.63,363.69-213.6S950.86,15.61,750,15.61h0Z"/>
  </g>
  <g>
    <path class="cls-2" d="M750,1154.27c-183.35,0-355.37-17.29-484.35-48.7-60.06-14.62-108.68-32.06-140.6-50.44-28.31-16.29-38.4-30.2-38.4-37.77s10.09-21.48,38.4-37.77c31.92-18.38,80.54-35.82,140.6-50.44,128.99-31.4,301-48.7,484.35-48.7s355.36,17.29,484.35,48.7c60.06,14.62,108.68,32.06,140.6,50.44,28.31,16.29,38.4,30.2,38.4,37.77s-10.09,21.48-38.4,37.77c-31.92,18.38-80.54,35.82-140.6,50.44-128.98,31.4-301,48.7-484.35,48.7Z"/>
    <path class="cls-2" d="M750,912.97c163.12,0,320.19,14.2,442.28,39.98,56.44,11.92,104.79,26.3,139.84,41.6,21.29,9.29,33.98,17.23,41.33,22.83-7.36,5.6-20.05,13.54-41.33,22.83-35.05,15.3-83.4,29.68-139.84,41.6-122.09,25.78-279.16,39.98-442.28,39.98s-320.19-14.2-442.28-39.98c-56.44-11.92-104.79-26.3-139.84-41.6-21.29-9.29-33.98-17.23-41.33-22.83,7.36-5.6,20.05-13.54,41.33-22.83,35.05-15.3,83.4-29.68,139.84-41.6,122.09-25.78,279.16-39.98,442.28-39.98M750,847.97c-384.3,0-695.85,75.84-695.85,169.4s311.54,169.4,695.85,169.4,695.85-75.84,695.85-169.4-311.54-169.4-695.85-169.4h0Z"/>
  </g>
  <g>
    <g>
      <path class="cls-3" d="M374.69,792.36c-45.85,0-90.24-5.25-131.92-15.61-39.58-9.83-74.9-23.78-104.99-41.45-28.17-16.55-50.91-36.18-65.74-56.78-13.96-19.38-21.04-39.49-21.04-59.77s7.08-40.38,21.04-59.77c14.84-20.6,37.57-40.23,65.74-56.78,30.09-17.67,65.41-31.61,104.99-41.45,41.69-10.35,86.07-15.61,131.92-15.61s90.24,5.25,131.92,15.61c39.58,9.83,74.9,23.78,104.99,41.45,28.17,16.55,50.91,36.18,65.74,56.78,13.96,19.38,21.04,39.49,21.04,59.77s-7.08,40.38-21.04,59.77c-14.84,20.6-37.57,40.23-65.74,56.78-30.09,17.67-65.41,31.61-104.99,41.45-41.69,10.35-86.07,15.61-131.92,15.61Z"/>
      <path class="cls-2" d="M374.69,485.17c42.6,0,83.75,4.85,122.28,14.43,35.35,8.78,67.98,21.61,94.38,37.12,23.41,13.75,41.93,29.54,53.54,45.66,9.08,12.61,13.5,24.51,13.5,36.39s-4.42,23.78-13.5,36.39c-11.61,16.12-30.12,31.91-53.54,45.66-26.4,15.5-59.03,28.34-94.38,37.12-38.53,9.57-79.68,14.43-122.28,14.43s-83.75-4.85-122.28-14.43c-35.35-8.78-67.98-21.61-94.38-37.12-23.41-13.75-41.93-29.54-53.54-45.66-9.08-12.61-13.5-24.51-13.5-36.39s4.42-23.78,13.5-36.39c11.61-16.12,30.12-31.91,53.54-45.66,26.4-15.5,59.03-28.34,94.38-37.12,38.53-9.57,79.68-14.43,122.28-14.43M374.69,405.17c-200.86,0-363.69,95.63-363.69,213.6s162.83,213.6,363.69,213.6,363.69-95.63,363.69-213.6-162.83-213.6-363.69-213.6h0Z"/>
    </g>
    <g>
      <path class="cls-3" d="M1125.31,792.36c-45.85,0-90.24-5.25-131.92-15.61-39.58-9.83-74.9-23.78-104.99-41.45-28.17-16.55-50.91-36.18-65.74-56.78-13.96-19.38-21.04-39.49-21.04-59.77s7.08-40.38,21.04-59.77c14.84-20.6,37.57-40.23,65.74-56.78,30.09-17.67,65.41-31.61,104.99-41.45,41.69-10.35,86.07-15.61,131.92-15.61s90.24,5.25,131.92,15.61c39.58,9.83,74.9,23.78,104.99,41.45,28.17,16.55,50.91,36.18,65.74,56.78,13.96,19.38,21.04,39.49,21.04,59.77s-7.08,40.38-21.04,59.77c-14.84,20.6-37.57,40.23-65.74,56.78-30.09,17.67-65.41,31.61-104.99,41.45-41.69,10.35-86.07,15.61-131.92,15.61Z"/>
      <path class="cls-2" d="M1125.31,485.17c42.6,0,83.75,4.85,122.28,14.43,35.35,8.78,67.98,21.61,94.38,37.12,23.42,13.75,41.93,29.54,53.54,45.66,9.08,12.61,13.5,24.51,13.5,36.39s-4.42,23.78-13.5,36.39c-11.61,16.12-30.12,31.91-53.54,45.66-26.4,15.5-59.03,28.34-94.38,37.12-38.54,9.57-79.68,14.43-122.28,14.43s-83.75-4.85-122.28-14.43c-35.35-8.78-67.98-21.61-94.38-37.12-23.41-13.75-41.93-29.54-53.54-45.66-9.08-12.61-13.5-24.51-13.5-36.39s4.42-23.78,13.5-36.39c11.61-16.12,30.12-31.91,53.54-45.66,26.4-15.5,59.03-28.34,94.38-37.12,38.53-9.57,79.68-14.43,122.28-14.43M1125.31,405.17c-200.86,0-363.69,95.63-363.69,213.6s162.83,213.6,363.69,213.6,363.69-95.63,363.69-213.6-162.83-213.6-363.69-213.6h0Z"/>
    </g>
  </g>
  <text class="cls-1" transform="translate(21.72 1457.38)"><tspan x="0" y="0">COTOMY</tspan></text>
</svg>