<?xml version="1.0" encoding="UTF-8"?>
<svg id="_レイヤー_1" data-name="レイヤー 1" xmlns="http://www.w3.org/2000/svg" xmlns:xlink="http://www.w3.org/1999/xlink" viewBox="0 0 1500 1500">
  <defs>
    <style>
      .cls-1 {
        fill: none;
      }

      .cls-2 {
        font-family: HiraKakuStd-W8-83pv-RKSJ-H, 'Hiragino Kaku Gothic Std';
        font-size: 277.71px;
      }

      .cls-2, .cls-3 {
        fill: #00aa8a;
      }

      .cls-4 {
        fill: #fff;
      }

      .cls-5 {
        clip-path: url(#clippath);
      }
    </style>
    <clipPath id="clippath">
      <rect class="cls-1" x="322.71" y="172.35" width="895.83" height="940.49"/>
    </clipPath>
  </defs>
  <g class="cls-5">
    <path class="cls-3" d="M750,336.64c35.61,0,70.78,11.86,104.54,35.26,17.45,12.1,34.47,27.27,50.57,45.1,16.55,18.33,32.22,39.55,46.58,63.07,30.06,49.26,53.78,107.08,70.49,171.85,17.6,68.18,26.52,140.78,26.52,215.77s-8.92,147.58-26.52,215.77c-16.71,64.77-40.43,122.58-70.49,171.85-14.35,23.53-30.03,44.75-46.58,63.07-16.1,17.83-33.12,33-50.57,45.1-33.75,23.4-68.92,35.26-104.54,35.26s-70.78-11.86-104.54-35.26c-17.45-12.1-34.47-27.27-50.57-45.1-16.55-18.33-32.22-39.55-46.58-63.07-30.06-49.26-53.78-107.08-70.49-171.85-17.6-68.18-26.52-140.78-26.52-215.77s8.92-147.58,26.52-215.77c16.71-64.77,40.43-122.58,70.49-171.85,14.35-23.53,30.03-44.75,46.58-63.07,16.1-17.83,33.12-33,50.57-45.1,33.75-23.4,68.92-35.26,104.54-35.26M750,271.64c-200.86,0-363.69,266.86-363.69,596.05s162.83,596.05,363.69,596.05,363.69-266.86,363.69-596.05-162.83-596.05-363.69-596.05h0Z"/>
  </g>
  <g>
    <path class="cls-4" d="M750,400.21c-86.1,0-166.47-20.06-226.29-56.47-53.62-32.64-83.15-73.93-83.15-116.25s29.53-83.61,83.15-116.25c59.82-36.42,140.19-56.47,226.29-56.47s166.47,20.06,226.29,56.47c53.62,32.64,83.15,73.93,83.15,116.25s-29.53,83.61-83.15,116.25c-59.82,36.42-140.19,56.47-226.29,56.47Z"/>
    <path class="cls-3" d="M750,94.76c40.45,0,79.5,4.77,116.07,14.19,33.5,8.63,64.42,21.23,89.42,36.45,40.64,24.74,63.95,54.66,63.95,82.09s-23.31,57.35-63.95,82.08c-25,15.22-55.92,27.82-89.42,36.45-36.57,9.42-75.62,14.19-116.07,14.19s-79.5-4.77-116.07-14.19c-33.5-8.63-64.42-21.23-89.42-36.45-40.64-24.74-63.95-54.66-63.95-82.08s23.31-57.35,63.95-82.09c25-15.22,55.92-27.82,89.42-36.45,36.57-9.42,75.62-14.19,116.07-14.19M750,14.76c-192.99,0-349.44,95.24-349.44,212.72s156.45,212.72,349.44,212.72,349.44-95.24,349.44-212.72S942.99,14.76,750,14.76h0Z"/>
  </g>
  <g>
    <path class="cls-3" d="M750,1154.27c-175.08,0-341.65-12.87-469.04-36.25-60.74-11.15-109.52-24.06-144.98-38.39-35.92-14.51-46.21-25.91-48.75-29.55,2.54-3.64,12.84-15.03,48.75-29.55,35.46-14.33,84.23-27.25,144.98-38.39,127.38-23.38,293.96-36.25,469.04-36.25s341.65,12.87,469.04,36.25c60.74,11.15,109.52,24.06,144.98,38.39,35.92,14.51,46.21,25.91,48.75,29.55-2.54,3.64-12.84,15.03-48.75,29.55-35.46,14.33-84.23,27.25-144.98,38.39-127.38,23.38-293.96,36.25-469.04,36.25Z"/>
    <path class="cls-3" d="M750,978.4c160.33,0,315.65,11.08,437.33,31.21,84.35,13.95,134.25,28.96,163.05,40.47-28.8,11.52-78.7,26.52-163.05,40.47-121.69,20.13-277,31.21-437.33,31.21s-315.65-11.08-437.33-31.21c-84.35-13.95-134.25-28.96-163.05-40.47,28.81-11.52,78.7-26.52,163.05-40.47,121.68-20.13,277-31.21,437.33-31.21M750,913.4c-384.3,0-695.85,61.2-695.85,136.69s311.54,136.69,695.85,136.69,695.85-61.2,695.85-136.69-311.54-136.69-695.85-136.69h0Z"/>
  </g>
  <g>
    <g>
      <path class="cls-4" d="M374.69,878.56c-45.1,0-88.76-6.42-129.78-19.07-39.07-12.05-74.01-29.19-103.83-50.94-58.1-42.37-90.09-97.49-90.09-155.22s32-112.86,90.09-155.22c29.82-21.75,64.75-38.88,103.83-50.94,41.02-12.65,84.68-19.07,129.78-19.07s88.76,6.41,129.78,19.07c39.07,12.05,74.01,29.19,103.83,50.94,58.1,42.37,90.09,97.49,90.09,155.22s-32,112.86-90.09,155.22c-29.82,21.75-64.75,38.88-103.83,50.94-41.02,12.65-84.68,19.07-129.78,19.07Z"/>
      <path class="cls-3" d="M374.69,468.11c41.1,0,80.79,5.82,117.99,17.29,34.84,10.75,65.81,25.9,92.05,45.03,47.5,34.64,73.66,78.29,73.66,122.9s-26.16,88.26-73.66,122.9c-26.24,19.14-57.21,34.29-92.05,45.03-37.19,11.47-76.89,17.29-117.99,17.29s-80.79-5.82-117.99-17.29c-34.84-10.75-65.81-25.9-92.05-45.03-47.5-34.64-73.66-78.29-73.66-122.9s26.16-88.26,73.66-122.9c26.24-19.14,57.21-34.29,92.05-45.03,37.19-11.47,76.89-17.29,117.99-17.29M374.69,388.11c-200.86,0-363.69,118.75-363.69,265.22s162.83,265.22,363.69,265.22,363.69-118.75,363.69-265.22-162.83-265.22-363.69-265.22h0Z"/>
    </g>
    <g>
      <path class="cls-4" d="M1125.31,878.56c-45.1,0-88.76-6.42-129.78-19.07-39.07-12.05-74.01-29.19-103.83-50.94-58.1-42.37-90.09-97.49-90.09-155.22s32-112.86,90.09-155.22c29.82-21.75,64.75-38.88,103.83-50.94,41.02-12.65,84.68-19.07,129.78-19.07s88.76,6.41,129.78,19.07c39.07,12.05,74.01,29.19,103.83,50.94,58.1,42.37,90.09,97.49,90.09,155.22s-32,112.86-90.09,155.22c-29.82,21.75-64.75,38.88-103.83,50.94-41.02,12.65-84.68,19.07-129.78,19.07Z"/>
      <path class="cls-3" d="M1125.31,468.11c41.1,0,80.79,5.82,117.99,17.29,34.84,10.75,65.81,25.9,92.05,45.03,47.5,34.64,73.66,78.29,73.66,122.9s-26.16,88.26-73.66,122.9c-26.24,19.14-57.21,34.29-92.05,45.03-37.19,11.47-76.89,17.29-117.99,17.29s-80.79-5.82-117.99-17.29c-34.84-10.75-65.81-25.9-92.05-45.03-47.5-34.64-73.66-78.29-73.66-122.9s26.16-88.26,73.66-122.9c26.24-19.14,57.21-34.29,92.05-45.03,37.19-11.47,76.89-17.29,117.99-17.29M1125.31,388.11c-200.86,0-363.69,118.75-363.69,265.22s162.83,265.22,363.69,265.22,363.69-118.75,363.69-265.22-162.83-265.22-363.69-265.22h0Z"/>
    </g>
  </g>
  <text class="cls-2" transform="translate(21.72 1457.38)"><tspan x="0" y="0">COTOMY</tspan></text>
</svg>