<?xml version="1.0" encoding="UTF-8"?>
<svg id="_レイヤー_1" data-name="レイヤー 1" xmlns="http://www.w3.org/2000/svg" viewBox="0 0 1500 1500">
  <defs>
    <style>
      .cls-1 {
        font-family: HiraKakuStd-W8-83pv-RKSJ-H, 'Hiragino Kaku Gothic Std';
        font-size: 277.71px;
      }

      .cls-1, .cls-2 {
        fill: #00aa8a;
      }

      .cls-3, .cls-4, .cls-5 {
        fill: none;
        stroke: #00aa8a;
      }

      .cls-3, .cls-4, .cls-5, .cls-6 {
        stroke-miterlimit: 10;
      }

      .cls-3, .cls-6 {
        stroke-width: 23px;
      }

      .cls-4 {
        stroke-width: 60px;
      }

      .cls-5 {
        stroke-width: 65px;
      }

      .cls-7, .cls-6 {
        fill: #fff;
        paint-order: stroke fill;
      }

      .cls-6 {
        stroke: #00aa8a;
      }

      .cls-7 {
        stroke: #00aa8a;
        stroke-width: 20px;
        stroke-miterlimit: 10;
      }
    </style>
  </defs>
  <text class="cls-1" transform="translate(21.72 1457.38)"><tspan x="0" y="0">COTOMY</tspan></text>
  <ellipse class="cls-2" cx="230.79" cy="600.26" rx="143.54" ry="116.79"/>
  <ellipse class="cls-7" cx="347.28" cy="711.54" rx="143.54" ry="116.79"/>
  <path class="cls-2" d="M750,80.61c44.34,0,87.24,7.02,127.5,20.88,38.23,13.16,72.39,31.84,101.52,55.54,56.67,46.1,87.87,106.22,87.87,169.27s-31.21,123.17-87.87,169.27c-29.13,23.7-63.28,42.39-101.52,55.54-40.26,13.85-83.16,20.88-127.5,20.88s-87.24-7.02-127.5-20.88c-38.23-13.16-72.39-31.84-101.52-55.54-56.67-46.1-87.87-106.22-87.87-169.27s31.21-123.17,87.87-169.27c29.13-23.7,63.28-42.39,101.52-55.54,40.26-13.85,83.16-20.88,127.5-20.88M750,15.61c-210.91,0-381.89,139.1-381.89,310.7s170.98,310.7,381.89,310.7,381.89-139.1,381.89-310.7S960.91,15.61,750,15.61h0Z"/>
  <path class="cls-2" d="M388.38,362.16c44.34,0,87.24,7.02,127.5,20.88,38.23,13.16,72.39,31.84,101.52,55.54,56.67,46.1,87.87,106.22,87.87,169.27s-31.21,123.17-87.87,169.28c-29.13,23.7-63.28,42.39-101.52,55.54-40.26,13.85-83.16,20.88-127.5,20.88s-87.24-7.02-127.5-20.88c-38.23-13.16-72.39-31.84-101.52-55.54-56.67-46.1-87.87-106.22-87.87-169.28s31.21-123.17,87.87-169.27c29.13-23.7,63.28-42.39,101.52-55.54,40.26-13.85,83.16-20.88,127.5-20.88M388.38,297.16C177.47,297.16,6.49,436.27,6.49,607.86s170.98,310.7,381.89,310.7,381.89-139.1,381.89-310.7-170.98-310.7-381.89-310.7h0Z"/>
  <path class="cls-2" d="M1111.62,362.16c44.34,0,87.24,7.02,127.5,20.88,38.23,13.16,72.39,31.84,101.52,55.54,56.67,46.1,87.87,106.22,87.87,169.27s-31.21,123.17-87.87,169.28c-29.13,23.7-63.28,42.39-101.52,55.54-40.26,13.85-83.16,20.88-127.5,20.88s-87.24-7.02-127.5-20.88c-38.23-13.16-72.39-31.84-101.52-55.54-56.67-46.1-87.87-106.22-87.87-169.28s31.21-123.17,87.87-169.27c29.13-23.7,63.28-42.39,101.52-55.54,40.26-13.85,83.16-20.88,127.5-20.88M1111.62,297.16c-210.91,0-381.89,139.1-381.89,310.7s170.98,310.7,381.89,310.7,381.89-139.1,381.89-310.7-170.98-310.7-381.89-310.7h0Z"/>
  <g>
    <circle class="cls-6" cx="750" cy="607.86" r="67.16"/>
    <circle class="cls-3" cx="750" cy="607.86" r="51.55"/>
  </g>
  <g>
    <circle class="cls-6" cx="1111.62" cy="319.32" r="67.16"/>
    <circle class="cls-3" cx="1111.62" cy="319.32" r="51.55"/>
  </g>
  <g>
    <circle class="cls-6" cx="381.61" cy="319.32" r="67.16"/>
    <circle class="cls-3" cx="381.61" cy="319.32" r="51.55"/>
  </g>
  <ellipse class="cls-2" cx="348.54" cy="712" rx="126.07" ry="102.57"/>
  <path class="cls-5" d="M750.29,1083.29c0-111.3-131.04-201.36-292.98-201.36"/>
  <path class="cls-5" d="M750.29,1083.29c0-111.3,131.57-201.36,294.17-201.36"/>
  <path class="cls-5" d="M355.81,1083.29c0-103.32,102.05-186.92,228.17-186.92"/>
  <path class="cls-5" d="M341.5,1083.29c0-132.77-83.59-240.21-186.89-240.21"/>
  <path class="cls-5" d="M1167.09,1083.29c0-132.77,83.59-240.21,186.89-240.21"/>
  <path class="cls-5" d="M1165.59,1089.12c0-103.32-102.05-186.92-228.17-186.92"/>
  <g>
    <circle class="cls-6" cx="500.32" cy="899.52" r="67.16"/>
    <circle class="cls-3" cx="500.32" cy="899.52" r="51.55"/>
  </g>
  <g>
    <circle class="cls-6" cx="1008.4" cy="899.52" r="67.16"/>
    <circle class="cls-3" cx="1008.4" cy="899.52" r="51.55"/>
  </g>
  <g>
    <circle class="cls-6" cx="172.98" cy="822.62" r="67.16"/>
    <circle class="cls-3" cx="172.98" cy="822.62" r="51.55"/>
  </g>
  <g>
    <circle class="cls-6" cx="1350.4" cy="822.62" r="67.16"/>
    <circle class="cls-3" cx="1350.4" cy="822.62" r="51.55"/>
  </g>
  <rect class="cls-4" x="70.18" y="1065.48" width="1334.7" height="80.57" rx="40.28" ry="40.28"/>
</svg>
